<svg width="41" height="40" viewBox="0 0 41 40" fill="none" xmlns="http://www.w3.org/2000/svg">
<path d="M24.4746 2.16L20.25 0L16.0253 2.16L11.3222 2.865L9.19092 7.065L5.80664 10.365L6.5812 15L5.80664 19.635L9.19092 22.935L11.3222 27.135L16.0253 27.84L20.25 30L24.4746 27.84L29.1777 27.135L31.309 22.935L34.6933 19.635L33.9187 15L34.6933 10.365L31.309 7.065L29.1777 2.865L24.4746 2.16ZM27.502 5.1425L29.2334 8.555L31.9823 11.235L31.3546 15L31.9823 18.765L29.2334 21.445L27.502 24.8575L23.6798 25.43L20.25 27.185L16.8201 25.43L12.9979 24.8575L11.2665 21.445L8.51761 18.765L9.14789 15L8.51508 11.235L11.2665 8.555L12.9979 5.1425L16.8201 4.57L20.25 2.815L23.6823 4.57L27.502 5.1425Z" fill="#B7171F"/>
<path d="M10.125 29.485V40L20.25 37.5L30.375 40V29.485L25.2669 30.25L20.25 32.815L15.2331 30.25L10.125 29.485Z" fill="#B7171F"/>
</svg>
