<svg width="40" height="40" viewBox="0 0 40 40" fill="none" xmlns="http://www.w3.org/2000/svg">
<path d="M34.1667 5.83296C32.843 4.50964 31.0479 3.76623 29.1761 3.76623C27.3044 3.76623 25.5093 4.50964 24.1855 5.83296L21.4891 8.53179L31.515 18.5553L34.1667 15.8141C35.49 14.4904 36.2334 12.6953 36.2334 10.8236C36.2334 8.9518 35.49 7.15669 34.1667 5.83296V5.83296ZM29.8655 20.2353L19.8279 10.1977L9.73613 20.3083L19.7644 30.3365L29.8655 20.2353ZM18.0867 31.9859L8.07025 21.9694L5.36201 24.6588C4.10767 25.9959 3.42269 27.7684 3.45203 29.6015C3.48136 31.4345 4.2227 33.1843 5.51919 34.4805C6.81568 35.7766 8.56559 36.5176 10.3987 36.5465C12.2317 36.5754 14.0041 35.89 15.3408 34.6353L15.355 34.6212L18.0844 31.9836L18.0867 31.9859ZM7.24437 19.473L22.5197 4.16943C24.2902 2.43586 26.673 1.47047 29.1509 1.48278C31.6288 1.49509 34.0019 2.48411 35.7552 4.23519C37.5084 5.98627 38.5004 8.35813 38.5158 10.836C38.5311 13.3139 37.5687 15.6979 35.8373 17.4706L32.362 21.0683L20.5832 32.8471L16.9997 36.3106C15.227 38.042 12.843 39.0044 10.3651 38.9891C7.88718 38.9737 5.51533 37.9817 3.76424 36.2285C2.01316 34.4752 1.02415 32.1021 1.01184 29.6242C0.999524 27.1463 1.96491 24.7635 3.69849 22.993L3.70084 22.9883L7.24201 19.4777L7.24437 19.473V19.473Z" fill="#B7171F"/>
<path d="M14.0222 19.4023C14.1347 19.5107 14.2245 19.6404 14.2863 19.7838C14.3482 19.9273 14.3808 20.0816 14.3824 20.2378C14.384 20.394 14.3544 20.549 14.2955 20.6936C14.2365 20.8383 14.1494 20.9698 14.0391 21.0804C13.9288 21.191 13.7975 21.2785 13.653 21.3379C13.5086 21.3972 13.3537 21.4272 13.1975 21.4261C13.0413 21.425 12.8869 21.3927 12.7432 21.3313C12.5996 21.2699 12.4697 21.1804 12.361 21.0682C12.2516 20.959 12.1648 20.8293 12.1055 20.6865C12.0463 20.5437 12.0157 20.3907 12.0156 20.2361C12.0154 19.9239 12.1392 19.6244 12.3598 19.4035C12.5804 19.1826 12.8797 19.0584 13.1919 19.0582C13.5041 19.0579 13.8036 19.1817 14.0245 19.4023H14.0222ZM17.3516 16.0753C17.4639 16.1838 17.5536 16.3136 17.6152 16.4572C17.6769 16.6007 17.7093 16.7551 17.7107 16.9113C17.7121 17.0675 17.6823 17.2224 17.6231 17.367C17.564 17.5116 17.4766 17.6429 17.3662 17.7534C17.2557 17.8639 17.1243 17.9512 16.9798 18.0104C16.8352 18.0695 16.6803 18.0993 16.524 18.0979C16.3678 18.0966 16.2135 18.0641 16.0699 18.0025C15.9264 17.9408 15.7966 17.8512 15.688 17.7388C15.4737 17.5169 15.3552 17.2197 15.3578 16.9113C15.3605 16.6028 15.4842 16.3077 15.7024 16.0896C15.9205 15.8715 16.2156 15.7478 16.524 15.7451C16.8325 15.7424 17.1297 15.861 17.3516 16.0753ZM20.681 12.7482C20.7902 12.8576 20.8768 12.9874 20.9359 13.1303C20.9949 13.2731 21.0253 13.4262 21.0252 13.5808C21.0251 13.7354 20.9945 13.8884 20.9352 14.0312C20.876 14.174 20.7892 14.3037 20.6798 14.4129C20.5704 14.5222 20.4406 14.6088 20.2977 14.6678C20.1549 14.7269 20.0018 14.7572 19.8472 14.7571C19.6926 14.757 19.5396 14.7264 19.3968 14.6672C19.254 14.6079 19.1243 14.5211 19.0151 14.4117C18.8008 14.1899 18.6822 13.8927 18.6849 13.5842C18.6876 13.2757 18.8113 12.9807 19.0294 12.7625C19.2476 12.5444 19.5426 12.4207 19.8511 12.418C20.1596 12.4153 20.4567 12.5339 20.6786 12.7482H20.681ZM20.681 26.0588C20.7902 26.1682 20.8768 26.298 20.9359 26.4409C20.9949 26.5837 21.0253 26.7368 21.0252 26.8914C21.0251 27.046 20.9945 27.199 20.9352 27.3418C20.876 27.4846 20.7892 27.6143 20.6798 27.7235C20.5704 27.8327 20.4406 27.9194 20.2977 27.9784C20.1549 28.0375 20.0018 28.0678 19.8472 28.0677C19.6926 28.0676 19.5396 28.037 19.3968 27.9778C19.254 27.9185 19.1243 27.8317 19.0151 27.7223C18.8008 27.5005 18.6822 27.2033 18.6849 26.8948C18.6876 26.5863 18.8113 26.2913 19.0294 26.0731C19.2476 25.855 19.5426 25.7313 19.8511 25.7286C20.1596 25.7259 20.4567 25.8445 20.6786 26.0588H20.681ZM24.0057 22.7294C24.2266 22.95 24.3508 23.2493 24.3511 23.5615C24.3513 23.8737 24.2275 24.1732 24.0069 24.3941C23.7863 24.615 23.487 24.7392 23.1748 24.7395C22.8626 24.7397 22.5631 24.6159 22.3422 24.3953C22.1279 24.1734 22.0093 23.8762 22.012 23.5677C22.0146 23.2593 22.1384 22.9642 22.3565 22.7461C22.5746 22.528 22.8697 22.4042 23.1782 22.4015C23.4866 22.3989 23.7838 22.5174 24.0057 22.7317V22.7294ZM27.3328 19.4023C27.4453 19.5107 27.5351 19.6404 27.5969 19.7838C27.6588 19.9273 27.6914 20.0816 27.693 20.2378C27.6946 20.394 27.665 20.549 27.6061 20.6936C27.5471 20.8383 27.46 20.9698 27.3497 21.0804C27.2394 21.191 27.1081 21.2785 26.9636 21.3379C26.8191 21.3972 26.6643 21.4272 26.5081 21.4261C26.3519 21.425 26.1974 21.3927 26.0538 21.3313C25.9102 21.2699 25.7803 21.1804 25.6716 21.0682C25.5622 20.959 25.4754 20.8293 25.4161 20.6865C25.3569 20.5437 25.3263 20.3907 25.3262 20.2361C25.326 19.9239 25.4498 19.6244 25.6704 19.4035C25.891 19.1826 26.1903 19.0584 26.5025 19.0582C26.8147 19.0579 27.1142 19.1817 27.3351 19.4023H27.3328ZM17.3516 22.7294C17.461 22.8386 17.5478 22.9683 17.607 23.1111C17.6663 23.2539 17.6968 23.4069 17.6969 23.5615C17.697 23.7161 17.6667 23.8692 17.6076 24.012C17.5486 24.1549 17.462 24.2847 17.3528 24.3941C17.2435 24.5035 17.1138 24.5903 16.971 24.6495C16.8283 24.7088 16.6752 24.7394 16.5206 24.7395C16.3661 24.7396 16.213 24.7092 16.0701 24.6502C15.9273 24.5911 15.7974 24.5045 15.688 24.3953C15.4737 24.1734 15.3552 23.8762 15.3578 23.5677C15.3605 23.2593 15.4842 22.9642 15.7024 22.7461C15.9205 22.528 16.2156 22.4042 16.524 22.4015C16.8325 22.3989 17.1297 22.5174 17.3516 22.7317V22.7294ZM20.681 19.4023C20.7904 19.5117 20.8771 19.6416 20.9363 19.7845C20.9955 19.9274 21.026 20.0806 21.026 20.2353C21.026 20.39 20.9955 20.5431 20.9363 20.6861C20.8771 20.829 20.7904 20.9588 20.681 21.0682C20.5716 21.1776 20.4417 21.2644 20.2988 21.3236C20.1559 21.3828 20.0027 21.4132 19.848 21.4132C19.6934 21.4132 19.5402 21.3828 19.3973 21.3236C19.2543 21.2644 19.1245 21.1776 19.0151 21.0682C18.9057 20.959 18.8189 20.8293 18.7597 20.6865C18.7004 20.5437 18.6699 20.3907 18.6697 20.2361C18.6695 19.9239 18.7933 19.6244 19.0139 19.4035C19.2345 19.1826 19.5338 19.0584 19.846 19.0582C20.1582 19.0579 20.4577 19.1817 20.6786 19.4023H20.681ZM24.0057 16.0753C24.1181 16.1838 24.2077 16.3136 24.2693 16.4572C24.331 16.6007 24.3635 16.7551 24.3648 16.9113C24.3662 17.0675 24.3364 17.2224 24.2772 17.367C24.2181 17.5116 24.1307 17.6429 24.0203 17.7534C23.9098 17.8639 23.7785 17.9512 23.6339 18.0104C23.4893 18.0695 23.3344 18.0993 23.1782 18.0979C23.022 18.0966 22.8676 18.0641 22.724 18.0025C22.5805 17.9408 22.4507 17.8512 22.3422 17.7388C22.1279 17.5169 22.0093 17.2197 22.012 16.9113C22.0146 16.6028 22.1384 16.3077 22.3565 16.0896C22.5746 15.8715 22.8697 15.7478 23.1782 15.7451C23.4866 15.7424 23.7838 15.861 24.0057 16.0753Z" fill="#B7171F"/>
</svg>
