<svg width="41" height="40" viewBox="0 0 41 40" fill="none" xmlns="http://www.w3.org/2000/svg">
<g clip-path="url(#clip0_137_31)">
<path d="M36.7031 7.5C37.0388 7.5 37.3607 7.6317 37.5981 7.86612C37.8354 8.10054 37.9688 8.41848 37.9688 8.75V31.25C37.9688 31.5815 37.8354 31.8995 37.5981 32.1339C37.3607 32.3683 37.0388 32.5 36.7031 32.5H3.79688C3.46121 32.5 3.13929 32.3683 2.90194 32.1339C2.66459 31.8995 2.53125 31.5815 2.53125 31.25V8.75C2.53125 8.41848 2.66459 8.10054 2.90194 7.86612C3.13929 7.6317 3.46121 7.5 3.79688 7.5H36.7031ZM3.79688 5C2.78988 5 1.82413 5.39509 1.11208 6.09835C0.400027 6.80161 0 7.75544 0 8.75L0 31.25C0 32.2446 0.400027 33.1984 1.11208 33.9017C1.82413 34.6049 2.78988 35 3.79688 35H36.7031C37.7101 35 38.6759 34.6049 39.3879 33.9017C40.1 33.1984 40.5 32.2446 40.5 31.25V8.75C40.5 7.75544 40.1 6.80161 39.3879 6.09835C38.6759 5.39509 37.7101 5 36.7031 5H3.79688Z" fill="#B7171F"/>
<path d="M17.7196 13.75C17.7196 13.4185 17.8529 13.1006 18.0903 12.8662C18.3276 12.6317 18.6495 12.5 18.9852 12.5H31.6414C31.9771 12.5 32.299 12.6317 32.5364 12.8662C32.7737 13.1006 32.9071 13.4185 32.9071 13.75C32.9071 14.0816 32.7737 14.3995 32.5364 14.6339C32.299 14.8683 31.9771 15 31.6414 15H18.9852C18.6495 15 18.3276 14.8683 18.0903 14.6339C17.8529 14.3995 17.7196 14.0816 17.7196 13.75ZM13.9328 11.615C14.0507 11.7312 14.1442 11.8691 14.208 12.021C14.2718 12.1728 14.3046 12.3356 14.3046 12.5C14.3046 12.6645 14.2718 12.8273 14.208 12.9791C14.1442 13.131 14.0507 13.2689 13.9328 13.385L10.1359 17.135C10.0184 17.2514 9.87871 17.3438 9.72495 17.4068C9.57119 17.4698 9.40635 17.5023 9.23988 17.5023C9.07341 17.5023 8.90857 17.4698 8.75481 17.4068C8.60105 17.3438 8.46138 17.2514 8.34382 17.135L7.07819 15.885C6.96052 15.7688 6.86718 15.6308 6.80349 15.479C6.73981 15.3271 6.70703 15.1644 6.70703 15C6.70703 14.6681 6.84054 14.3498 7.07819 14.115C7.31584 13.8803 7.63817 13.7485 7.97426 13.7485C8.31034 13.7485 8.63267 13.8803 8.87032 14.115L9.23988 14.4825L12.1407 11.615C12.2583 11.4986 12.3979 11.4063 12.5517 11.3433C12.7054 11.2802 12.8703 11.2478 13.0368 11.2478C13.2032 11.2478 13.3681 11.2802 13.5218 11.3433C13.6756 11.4063 13.8153 11.4986 13.9328 11.615ZM17.7196 23.75C17.7196 23.4185 17.8529 23.1006 18.0903 22.8662C18.3276 22.6317 18.6495 22.5 18.9852 22.5H31.6414C31.9771 22.5 32.299 22.6317 32.5364 22.8662C32.7737 23.1006 32.9071 23.4185 32.9071 23.75C32.9071 24.0816 32.7737 24.3995 32.5364 24.6339C32.299 24.8683 31.9771 25 31.6414 25H18.9852C18.6495 25 18.3276 24.8683 18.0903 24.6339C17.8529 24.3995 17.7196 24.0816 17.7196 23.75ZM13.9328 21.615C14.0507 21.7311 14.1442 21.8691 14.208 22.021C14.2718 22.1728 14.3046 22.3356 14.3046 22.5C14.3046 22.6645 14.2718 22.8273 14.208 22.9791C14.1442 23.131 14.0507 23.2689 13.9328 23.385L10.1359 27.135C10.0184 27.2514 9.87871 27.3438 9.72495 27.4068C9.57119 27.4698 9.40635 27.5023 9.23988 27.5023C9.07341 27.5023 8.90857 27.4698 8.75481 27.4068C8.60105 27.3438 8.46138 27.2514 8.34382 27.135L7.07819 25.885C6.96052 25.7688 6.86718 25.6308 6.80349 25.479C6.73981 25.3271 6.70703 25.1644 6.70703 25C6.70703 24.8357 6.73981 24.6729 6.80349 24.5211C6.86718 24.3692 6.96052 24.2313 7.07819 24.115C7.19587 23.9988 7.33556 23.9066 7.48931 23.8437C7.64306 23.7808 7.80784 23.7485 7.97426 23.7485C8.14067 23.7485 8.30545 23.7808 8.4592 23.8437C8.61295 23.9066 8.75265 23.9988 8.87032 24.115L9.23988 24.4825L12.1407 21.615C12.2583 21.4986 12.3979 21.4063 12.5517 21.3433C12.7054 21.2802 12.8703 21.2478 13.0368 21.2478C13.2032 21.2478 13.3681 21.2802 13.5218 21.3433C13.6756 21.4063 13.8153 21.4986 13.9328 21.615Z" fill="#B7171F"/>
</g>
<defs>
<clipPath id="clip0_137_31">
<rect width="40.5" height="40" fill="white"/>
</clipPath>
</defs>
</svg>
