<svg width="41" height="41" viewBox="0 0 41 41" fill="none" xmlns="http://www.w3.org/2000/svg">
<path fill-rule="evenodd" clip-rule="evenodd" d="M22.3124 3.84377C21.8319 3.36338 21.1802 3.09351 20.5007 3.09351C19.8212 3.09351 19.1696 3.36338 18.689 3.84377L1.65609 20.8741C1.41584 21.1147 1.28101 21.4409 1.28125 21.7809C1.28149 22.1209 1.41678 22.4469 1.65737 22.6871C1.89795 22.9274 2.22412 23.0622 2.56412 23.062C2.90412 23.0617 3.23009 22.9264 3.47034 22.6858L5.12571 21.0305V34.5938C5.12571 35.6132 5.53068 36.5909 6.25152 37.3117C6.97236 38.0326 7.95004 38.4375 8.96946 38.4375H32.032C33.0514 38.4375 34.0291 38.0326 34.7499 37.3117C35.4707 36.5909 35.8757 35.6132 35.8757 34.5938V21.0305L37.5311 22.6858C37.7713 22.9264 38.0973 23.0617 38.4373 23.062C38.7773 23.0622 39.1035 22.9274 39.3441 22.6871C39.5846 22.4469 39.7199 22.1209 39.7202 21.7809C39.7204 21.4409 39.5856 21.1147 39.3453 20.8741L33.3132 14.8446V6.40627C33.3132 6.06646 33.1782 5.74057 32.9379 5.50029C32.6977 5.26001 32.3718 5.12502 32.032 5.12502H29.4695C29.1296 5.12502 28.8038 5.26001 28.5635 5.50029C28.3232 5.74057 28.1882 6.06646 28.1882 6.40627V9.71958L22.3124 3.84377ZM33.3132 18.468L20.5007 5.65546L7.68821 18.468V34.5938C7.68821 34.9336 7.8232 35.2595 8.06348 35.4998C8.30376 35.74 8.62965 35.875 8.96946 35.875H32.032C32.3718 35.875 32.6977 35.74 32.9379 35.4998C33.1782 35.2595 33.3132 34.9336 33.3132 34.5938V18.468ZM20.5007 17.8914C24.7647 13.6043 35.4273 21.1048 20.5007 30.75C5.57415 21.1048 16.2367 13.6043 20.5007 17.8914Z" fill="#B7171F"/>
</svg>
