<svg width="30" height="30" viewBox="0 0 30 30" fill="none" xmlns="http://www.w3.org/2000/svg">
<path d="M14.9987 9.22119C13.4658 9.22119 11.9956 9.83015 10.9117 10.9141C9.82771 11.9981 9.21875 13.4682 9.21875 15.0012C9.21875 16.5341 9.82771 18.0043 10.9117 19.0883C11.9956 20.1722 13.4658 20.7812 14.9987 20.7812C16.5317 20.7812 18.0019 20.1722 19.0858 19.0883C20.1698 18.0043 20.7787 16.5341 20.7787 15.0012C20.7787 13.4682 20.1698 11.9981 19.0858 10.9141C18.0019 9.83015 16.5317 9.22119 14.9987 9.22119V9.22119ZM14.9987 18.7549C14.0029 18.7549 13.0478 18.3593 12.3436 17.6551C11.6394 16.9509 11.2437 15.9958 11.2437 14.9999C11.2437 14.0041 11.6394 13.049 12.3436 12.3448C13.0478 11.6406 14.0029 11.2449 14.9987 11.2449C15.9946 11.2449 16.9497 11.6406 17.6539 12.3448C18.3581 13.049 18.7538 14.0041 18.7538 14.9999C18.7538 15.9958 18.3581 16.9509 17.6539 17.6551C16.9497 18.3593 15.9946 18.7549 14.9987 18.7549V18.7549Z" fill="#0F5534"/>
<path d="M21.0077 10.3561C21.7519 10.3561 22.3552 9.75284 22.3552 9.00863C22.3552 8.26443 21.7519 7.66113 21.0077 7.66113C20.2635 7.66113 19.6602 8.26443 19.6602 9.00863C19.6602 9.75284 20.2635 10.3561 21.0077 10.3561Z" fill="#0F5534"/>
<path d="M25.6657 7.63885C25.3763 6.89157 24.9341 6.21295 24.3674 5.64642C23.8006 5.07989 23.1218 4.63794 22.3745 4.34885C21.4999 4.02054 20.5759 3.84302 19.642 3.82385C18.4382 3.77135 18.057 3.75635 15.0045 3.75635C11.952 3.75635 11.5607 3.75635 10.367 3.82385C9.43369 3.84204 8.5104 4.0196 7.63695 4.34885C6.88937 4.6376 6.21041 5.07944 5.64362 5.64601C5.07683 6.21258 4.63474 6.89138 4.3457 7.63885C4.01733 8.51336 3.84022 9.43739 3.82195 10.3713C3.7682 11.5738 3.75195 11.9551 3.75195 15.0088C3.75195 18.0613 3.75195 18.4501 3.82195 19.6463C3.8407 20.5813 4.01695 21.5038 4.3457 22.3801C4.63555 23.1273 5.07807 23.8058 5.645 24.3723C6.21192 24.9388 6.89078 25.3808 7.6382 25.6701C8.51 26.0116 9.43367 26.2018 10.3695 26.2326C11.5732 26.2851 11.9545 26.3013 15.007 26.3013C18.0595 26.3013 18.4507 26.3013 19.6445 26.2326C20.5783 26.2136 21.5022 26.0365 22.377 25.7088C23.1241 25.4191 23.8027 24.9767 24.3694 24.4101C24.9361 23.8434 25.3784 23.1648 25.6682 22.4176C25.997 21.5426 26.1732 20.6201 26.192 19.6851C26.2457 18.4826 26.262 18.1013 26.262 15.0476C26.262 11.9938 26.262 11.6063 26.192 10.4101C26.1774 9.46294 25.9994 8.52541 25.6657 7.63885V7.63885ZM24.1432 19.5538C24.1351 20.2742 24.0037 20.9879 23.7545 21.6638C23.5667 22.1499 23.2794 22.5913 22.9108 22.9597C22.5422 23.328 22.1006 23.6152 21.6145 23.8026C20.946 24.0507 20.2399 24.1821 19.527 24.1913C18.3395 24.2463 18.0045 24.2601 14.9595 24.2601C11.912 24.2601 11.6007 24.2601 10.3907 24.1913C9.67811 24.1826 8.97236 24.0511 8.30445 23.8026C7.81656 23.6163 7.37321 23.3297 7.00307 22.9613C6.63293 22.5929 6.34425 22.1509 6.1557 21.6638C5.91001 20.9952 5.77859 20.2899 5.76695 19.5776C5.7132 18.3901 5.7007 18.0551 5.7007 15.0101C5.7007 11.9638 5.7007 11.6526 5.76695 10.4413C5.77503 9.72138 5.90652 9.00812 6.1557 8.3326C6.53695 7.34635 7.3182 6.5701 8.30445 6.1926C8.97269 5.94527 9.67823 5.8138 10.3907 5.80385C11.5795 5.7501 11.9132 5.7351 14.9595 5.7351C18.0057 5.7351 18.3182 5.7351 19.527 5.80385C20.24 5.81243 20.9462 5.94394 21.6145 6.1926C22.1006 6.38044 22.5421 6.66785 22.9107 7.03639C23.2792 7.40492 23.5666 7.84644 23.7545 8.3326C24.0001 9.00128 24.1316 9.70655 24.1432 10.4188C24.197 11.6076 24.2107 11.9413 24.2107 14.9876C24.2107 18.0326 24.2107 18.3601 24.157 19.5551H24.1432V19.5538Z" fill="#0F5534"/>
</svg>
