<svg width="69" height="69" viewBox="0 0 69 69" fill="none" xmlns="http://www.w3.org/2000/svg">
<path d="M6.94922 6.47812H9.71106L17.7915 21.7494L25.0535 6.47812H27.8145V24.4145H25.0535V8.14382L17.3055 24.4145H16.2566L7.69502 8.24614L7.64356 8.17002V24.4145H6.9533L6.94922 6.47812Z" fill="#B7171F"/>
<path d="M42.9902 49.4025C42.9902 44.0224 47.1326 40.2047 52.9626 40.2047C56.3118 40.2047 59.1765 41.7673 59.995 43.4838L58.5369 43.9962C57.5656 41.7673 55.5709 40.7425 53.2183 40.7425C49.1274 40.7425 45.8795 44.5077 45.8795 49.3518C45.8795 54.2711 49.0759 58.038 53.1929 58.038C55.0848 58.038 56.926 57.3202 57.8213 56.2184V50.9127H60.5823V52.7069C60.5823 56.166 57.3859 58.6003 52.9373 58.6003C47.1073 58.6012 42.9902 54.8089 42.9902 49.4025Z" fill="#B7171F"/>
<path d="M35.0212 0.656746H34.0703V68.4751H35.0212V0.656746Z" fill="#B7171F"/>
<path d="M68.388 34.0895H0.707031V35.0423H68.388V34.0895Z" fill="#B7171F"/>
<path d="M42.58 20.6215C42.2533 19.7587 42.6347 18.657 43.5603 17.9776C44.3085 17.43 45.2128 17.304 45.9128 17.579C46.2878 17.7192 46.6916 17.7642 47.0881 17.7099C47.4847 17.6556 47.8617 17.5038 48.1854 17.268C48.4211 17.1018 48.6483 16.9237 48.8658 16.7343C49.5046 16.0942 50.4416 15.2421 51.5117 14.3057C51.8891 11.1707 52.6806 4.84679 53.0498 3.73932C53.0498 3.73932 53.2287 3.02065 53.54 3.33005C53.54 3.33005 53.4803 8.25432 53.2949 12.766C56.7331 9.84145 60.5724 6.76051 60.5724 6.76051C61.007 6.8178 60.552 7.40141 60.552 7.40141C59.9083 8.37546 55.4188 12.897 53.1846 15.1259C53.1029 16.5468 53.0147 17.8098 52.9036 18.7077C52.9036 18.7077 52.8799 19.0892 52.9036 19.5729C52.9179 19.9733 53.0309 20.364 53.2326 20.7099C53.4343 21.0559 53.7184 21.3463 54.0595 21.5554C54.7073 21.9377 55.1663 22.7284 55.1957 23.6549C55.2382 24.9875 54.3789 26.0966 53.2761 26.1326C52.1733 26.1686 51.2445 25.1185 51.2021 23.7867C51.1753 23.1897 51.3477 22.6007 51.6922 22.1128C52.0823 21.5964 52.264 20.9517 52.2011 20.3071C52.0671 19.1162 51.8286 17.4079 51.4847 16.4789C50.542 16.7809 49.0504 17.6453 48.031 18.2739C47.4847 18.621 47.0891 19.1617 46.9233 19.7882C46.7523 20.3609 46.396 20.8603 45.9104 21.2075C44.9024 21.9442 43.6084 21.918 42.9149 21.1756C42.7894 20.9997 42.6774 20.8144 42.58 20.6215ZM51.8008 23.7654C51.8311 24.701 52.4829 25.4385 53.2573 25.4131C54.0317 25.3878 54.6354 24.6085 54.606 23.6729C54.5766 22.7374 53.9239 21.9999 53.1495 22.0252C52.3751 22.0506 51.7714 22.8298 51.8008 23.7654V23.7654ZM51.9805 15.5417C52.1086 15.6043 52.2524 15.6275 52.3936 15.6083C52.5348 15.589 52.6672 15.5283 52.7739 15.4337C52.8807 15.339 52.957 15.2148 52.9933 15.0767C53.0296 14.9386 53.0242 14.7929 52.9778 14.6578C52.9314 14.5228 52.8461 14.4046 52.7326 14.3182C52.6192 14.2317 52.4827 14.181 52.3404 14.1723C52.1982 14.1636 52.0565 14.1974 51.9334 14.2693C51.8104 14.3413 51.7113 14.4483 51.6489 14.5766C51.5652 14.7487 51.5532 14.947 51.6153 15.128C51.6775 15.3089 51.8089 15.4577 51.9805 15.5417V15.5417ZM43.3724 20.5928C43.8298 21.219 44.8117 21.2779 45.5665 20.7254C46.3213 20.1729 46.5622 19.2169 46.1048 18.5907C45.6474 17.9645 44.6655 17.9056 43.9107 18.4581C43.1559 19.0106 42.9149 19.9675 43.3724 20.5928Z" fill="#B7171F"/>
<path d="M17.9166 49.3518C19.9106 48.6618 21.0591 50.3422 23.4713 51.3588C27.0124 52.8494 27.3106 55.1814 25.8762 56.2283C24.4417 57.2751 22.3955 55.9753 20.6678 56.6629L20.6515 56.6694L20.6351 56.6752C18.8821 57.2948 18.1943 59.6219 16.4242 59.7774C14.654 59.9329 13.3519 57.9766 15.0428 54.5241C16.1971 52.1684 15.961 50.145 17.9166 49.3518Z" fill="#B7171F"/>
<path d="M22.1334 46.0949C21.6041 48.0102 22.1734 49.8396 23.4053 50.1818C24.6371 50.5239 26.065 49.2487 26.5911 47.3333C27.1171 45.4179 26.551 43.5893 25.3192 43.2472C24.0874 42.9051 22.6627 44.1803 22.1334 46.0949Z" fill="#B7171F"/>
<path d="M12.6021 49.6743C14.2571 50.7687 15.0282 52.5228 14.3241 53.5918C13.62 54.6608 11.7101 54.6403 10.0527 53.5451C8.39525 52.4499 7.62739 50.6975 8.33153 49.6285C9.03567 48.5595 10.948 48.5799 12.6021 49.6743Z" fill="#B7171F"/>
<path d="M16.4639 43.9069C16.8429 45.968 18.2251 47.4397 19.5509 47.195C20.8766 46.9502 21.6437 45.0807 21.2663 43.0205C20.8889 40.9602 19.5051 39.4877 18.1793 39.7324C16.8536 39.9772 16.0849 41.8467 16.4639 43.9069Z" fill="#B7171F"/>
<path d="M15.4406 44.2916C16.5025 46.0924 16.4298 48.1134 15.2699 48.8017C14.1099 49.4901 12.3063 48.5873 11.2402 46.7849C10.1742 44.9825 10.251 42.9624 11.411 42.274C12.5709 41.5856 14.3746 42.4884 15.4406 44.2916Z" fill="#B7171F"/>
</svg>
