<svg width="69" height="69" viewBox="0 0 69 69" fill="none" xmlns="http://www.w3.org/2000/svg">
<path d="M6.94922 6.47803H9.71106L17.7915 21.7493L25.0535 6.47803H27.8145V24.4144H25.0535V8.14373L17.3055 24.4144H16.2566L7.69502 8.24605L7.64356 8.16992V24.4144H6.9533L6.94922 6.47803Z" fill="white"/>
<path d="M42.9902 49.4024C42.9902 44.0222 47.1326 40.2046 52.9626 40.2046C56.3118 40.2046 59.1765 41.7672 59.995 43.4836L58.5369 43.996C57.5656 41.7672 55.5709 40.7424 53.2183 40.7424C49.1274 40.7424 45.8795 44.5076 45.8795 49.3516C45.8795 54.271 49.0759 58.0379 53.1929 58.0379C55.0848 58.0379 56.926 57.32 57.8213 56.2183V50.9126H60.5823V52.7068C60.5823 56.1659 57.3859 58.6002 52.9373 58.6002C47.1073 58.601 42.9902 54.8088 42.9902 49.4024Z" fill="white"/>
<path d="M35.0212 0.656738H34.0703V68.4751H35.0212V0.656738Z" fill="white"/>
<path d="M68.388 34.0894H0.707031V35.0421H68.388V34.0894Z" fill="white"/>
<path d="M42.58 20.6217C42.2533 19.759 42.6347 18.6572 43.5603 17.9778C44.3085 17.4302 45.2128 17.3042 45.9128 17.5792C46.2878 17.7194 46.6916 17.7644 47.0881 17.7101C47.4847 17.6558 47.8617 17.504 48.1854 17.2682C48.4211 17.1021 48.6483 16.9239 48.8658 16.7345C49.5046 16.0944 50.4416 15.2423 51.5117 14.3059C51.8891 11.171 52.6806 4.84702 53.0498 3.73955C53.0498 3.73955 53.2287 3.02088 53.54 3.33028C53.54 3.33028 53.4803 8.25455 53.2949 12.7663C56.7331 9.84167 60.5724 6.76074 60.5724 6.76074C61.007 6.81803 60.552 7.40164 60.552 7.40164C59.9083 8.37569 55.4188 12.8972 53.1846 15.1261C53.1029 16.5471 53.0147 17.81 52.9036 18.708C52.9036 18.708 52.8799 19.0894 52.9036 19.5732C52.9179 19.9736 53.0309 20.3642 53.2326 20.7101C53.4343 21.0561 53.7184 21.3466 54.0595 21.5556C54.7073 21.9379 55.1663 22.7286 55.1957 23.6552C55.2382 24.9877 54.3789 26.0968 53.2761 26.1328C52.1733 26.1689 51.2445 25.1187 51.2021 23.7869C51.1753 23.1899 51.3477 22.6009 51.6922 22.113C52.0823 21.5966 52.264 20.952 52.2011 20.3074C52.0671 19.1164 51.8286 17.4081 51.4847 16.4791C50.542 16.7812 49.0504 17.6455 48.031 18.2742C47.4847 18.6212 47.0891 19.1619 46.9233 19.7884C46.7523 20.3611 46.396 20.8605 45.9104 21.2078C44.9024 21.9444 43.6084 21.9182 42.9149 21.1758C42.7894 20.9999 42.6774 20.8147 42.58 20.6217ZM51.8008 23.7657C51.8311 24.7012 52.4829 25.4387 53.2573 25.4134C54.0317 25.388 54.6354 24.6087 54.606 23.6732C54.5766 22.7376 53.9239 22.0001 53.1495 22.0255C52.3751 22.0508 51.7714 22.8301 51.8008 23.7657ZM51.9805 15.5419C52.1086 15.6045 52.2524 15.6277 52.3936 15.6085C52.5348 15.5893 52.6672 15.5285 52.7739 15.4339C52.8807 15.3393 52.957 15.2151 52.9933 15.077C53.0296 14.9389 53.0242 14.7931 52.9778 14.6581C52.9314 14.523 52.8461 14.4048 52.7326 14.3184C52.6192 14.232 52.4827 14.1812 52.3404 14.1725C52.1982 14.1638 52.0565 14.1976 51.9334 14.2696C51.8104 14.3415 51.7113 14.4485 51.6489 14.5769C51.5652 14.7489 51.5532 14.9472 51.6153 15.1282C51.6775 15.3091 51.8089 15.458 51.9805 15.5419ZM43.3724 20.593C43.8298 21.2192 44.8117 21.2782 45.5665 20.7256C46.3213 20.1731 46.5622 19.2171 46.1048 18.5909C45.6474 17.9647 44.6655 17.9058 43.9107 18.4583C43.1559 19.0108 42.9149 19.9677 43.3724 20.593Z" fill="white"/>
<path d="M17.9166 49.352C19.9106 48.662 21.0591 50.3425 23.4713 51.3591C27.0124 52.8496 27.3106 55.1816 25.8762 56.2285C24.4417 57.2754 22.3955 55.9756 20.6678 56.6631L20.6515 56.6697L20.6351 56.6754C18.8821 57.295 18.1943 59.6221 16.4242 59.7776C14.654 59.9331 13.3519 57.9769 15.0428 54.5243C16.1971 52.1686 15.961 50.1452 17.9166 49.352Z" fill="white"/>
<path d="M22.1334 46.0951C21.6041 48.0104 22.1734 49.8398 23.4053 50.182C24.6371 50.5241 26.065 49.2489 26.5911 47.3335C27.1171 45.4181 26.551 43.5895 25.3192 43.2474C24.0874 42.9052 22.6627 44.1805 22.1334 46.0951Z" fill="white"/>
<path d="M12.6021 49.6747C14.2571 50.7691 15.0282 52.5232 14.3241 53.5922C13.62 54.6612 11.7101 54.6407 10.0527 53.5455C8.39525 52.4503 7.62739 50.6979 8.33153 49.6289C9.03567 48.5599 10.948 48.5803 12.6021 49.6747Z" fill="white"/>
<path d="M16.4639 43.9071C16.8429 45.9682 18.2251 47.4399 19.5509 47.1952C20.8766 46.9504 21.6437 45.0809 21.2663 43.0207C20.8889 40.9604 19.5051 39.4879 18.1793 39.7326C16.8536 39.9774 16.0849 41.8469 16.4639 43.9071Z" fill="white"/>
<path d="M15.4406 44.292C16.5025 46.0928 16.4298 48.1137 15.2699 48.8021C14.1099 49.4905 12.3063 48.5877 11.2402 46.7853C10.1742 44.9829 10.251 42.9627 11.411 42.2743C12.5709 41.586 14.3746 42.4888 15.4406 44.292Z" fill="white"/>
</svg>
