<svg width="130" height="131" viewBox="0 0 130 131" fill="none" xmlns="http://www.w3.org/2000/svg">
<path d="M13.0938 12.7051H18.2972L33.5213 41.4771L47.2033 12.7051H52.4052V46.4984H47.2033V15.8434L32.6056 46.4984H30.6295L14.4989 16.0362L14.4019 15.8928V46.4984H13.1014L13.0938 12.7051Z" fill="#B7171F"/>
<path d="M80.9961 93.5772C80.9961 83.4407 88.8005 76.248 99.7846 76.248C106.095 76.248 111.492 79.192 113.034 82.4259L110.287 83.3913C108.457 79.192 104.699 77.2612 100.266 77.2612C92.5588 77.2612 86.4396 84.3552 86.4396 93.4816C86.4396 102.75 92.4619 109.847 100.219 109.847C103.783 109.847 107.252 108.494 108.939 106.419V96.4225H114.141V99.8029C114.141 106.32 108.118 110.906 99.7369 110.906C88.7528 110.908 80.9961 103.763 80.9961 93.5772Z" fill="#B7171F"/>
<path d="M65.9829 1.73734H64.1914V129.511H65.9829V1.73734Z" fill="#B7171F"/>
<path d="M128.847 64.7266H1.33203V66.5217H128.847V64.7266Z" fill="#B7171F"/>
<path d="M80.2248 39.352C79.6092 37.7266 80.3279 35.6508 82.0716 34.3709C83.4814 33.3392 85.1851 33.1017 86.504 33.6198C87.2105 33.884 87.9713 33.9687 88.7184 33.8664C89.4655 33.7642 90.1757 33.4781 90.7856 33.0338C91.2298 32.7208 91.6577 32.3852 92.0676 32.0283C93.2711 30.8224 95.0364 29.217 97.0525 27.4528C97.7636 21.5463 99.2549 9.63162 99.9505 7.54508C99.9505 7.54508 100.288 6.19107 100.874 6.774C100.874 6.774 100.762 16.0516 100.412 24.552C106.89 19.0418 114.123 13.2372 114.123 13.2372C114.942 13.3451 114.085 14.4447 114.085 14.4447C112.872 16.2798 104.414 24.7987 100.204 28.998C100.051 31.6752 99.8844 34.0547 99.6751 35.7465C99.6751 35.7465 99.6304 36.4651 99.6751 37.3765C99.7019 38.1309 99.9149 38.8669 100.295 39.5187C100.675 40.1704 101.21 40.7177 101.853 41.1116C103.073 41.8318 103.938 43.3215 103.994 45.0672C104.074 47.5779 102.455 49.6675 100.377 49.7353C98.2992 49.8032 96.5493 47.8246 96.4692 45.3155C96.4187 44.1907 96.7436 43.081 97.3927 42.1618C98.1276 41.1889 98.4699 39.9743 98.3515 38.7598C98.0991 36.516 97.6497 33.2975 97.0018 31.5472C95.2257 32.1162 92.4154 33.7447 90.4947 34.9291C89.4655 35.5829 88.7202 36.6018 88.4078 37.7821C88.0857 38.8611 87.4143 39.8019 86.4994 40.4562C84.6003 41.8441 82.1624 41.7948 80.8558 40.3961C80.6192 40.0647 80.4083 39.7156 80.2248 39.352ZM97.5974 45.2754C97.6543 47.0381 98.8825 48.4276 100.341 48.3798C101.8 48.332 102.938 46.8638 102.882 45.1012C102.827 43.3385 101.597 41.949 100.138 41.9968C98.6793 42.0446 97.542 43.5127 97.5974 45.2754ZM97.9359 29.7814C98.1773 29.8994 98.4481 29.9431 98.7141 29.9068C98.9802 29.8706 99.2296 29.7561 99.4307 29.5779C99.6318 29.3996 99.7756 29.1656 99.844 28.9054C99.9124 28.6452 99.9022 28.3706 99.8148 28.1162C99.7274 27.8618 99.5666 27.6391 99.3529 27.4763C99.1391 27.3134 98.882 27.2178 98.614 27.2014C98.346 27.185 98.0791 27.2487 97.8472 27.3843C97.6153 27.5199 97.4287 27.7213 97.3111 27.9632C97.1535 28.2874 97.1307 28.661 97.2479 29.0019C97.3651 29.3429 97.6126 29.6232 97.9359 29.7814ZM81.7176 39.298C82.5795 40.4778 84.4294 40.5888 85.8515 39.5479C87.2735 38.5069 87.7276 36.7057 86.8657 35.5259C86.0038 34.3462 84.1539 34.2351 82.7319 35.2761C81.3098 36.3171 80.8558 38.1198 81.7176 39.298Z" fill="#B7171F"/>
<path d="M33.7525 93.4817C37.5092 92.1816 39.6731 95.3477 44.2179 97.263C50.8896 100.071 51.4513 104.465 48.7488 106.437C46.0462 108.41 42.191 105.961 38.9359 107.256L38.9051 107.269L38.8744 107.279C35.5716 108.447 34.2757 112.831 30.9407 113.124C27.6056 113.417 25.1524 109.731 28.3382 103.227C30.5128 98.7882 30.068 94.976 33.7525 93.4817Z" fill="#B7171F"/>
<path d="M41.697 87.3454C40.6997 90.954 41.7724 94.4008 44.0933 95.0454C46.4141 95.69 49.1043 93.2873 50.0955 89.6787C51.0866 86.07 50.0201 82.6249 47.6992 81.9802C45.3783 81.3356 42.6943 83.7383 41.697 87.3454Z" fill="#B7171F"/>
<path d="M23.7413 94.0893C26.8594 96.1511 28.3123 99.4559 26.9856 101.47C25.659 103.484 22.0607 103.446 18.938 101.382C15.8153 99.3187 14.3686 96.0169 15.6953 94.0029C17.0219 91.9888 20.6248 92.0274 23.7413 94.0893Z" fill="#B7171F"/>
<path d="M31.0182 83.2232C31.7323 87.1064 34.3363 89.8792 36.8342 89.4181C39.332 88.957 40.7772 85.4347 40.0661 81.5531C39.3551 77.6715 36.748 74.8971 34.2501 75.3582C31.7523 75.8193 30.3041 79.3416 31.0182 83.2232Z" fill="#B7171F"/>
<path d="M29.0882 83.948C31.089 87.3408 30.952 91.1483 28.7666 92.4453C26.5812 93.7423 23.183 92.0413 21.1745 88.6454C19.1661 85.2496 19.3108 81.4436 21.4962 80.1466C23.6816 78.8497 27.0798 80.5507 29.0882 83.948Z" fill="#B7171F"/>
</svg>
