<svg width="40" height="34" viewBox="0 0 40 34" fill="none" xmlns="http://www.w3.org/2000/svg">
<path d="M15.2388 16.9999C17.1332 16.9999 18.9501 16.2474 20.2896 14.9079C21.6291 13.5683 22.3817 11.7515 22.3817 9.85709C22.3817 7.96269 21.6291 6.14587 20.2896 4.80633C18.9501 3.46678 17.1332 2.71423 15.2388 2.71423C13.3444 2.71423 11.5276 3.46678 10.1881 4.80633C8.84853 6.14587 8.09598 7.96269 8.09598 9.85709C8.09598 11.7515 8.84853 13.5683 10.1881 14.9079C11.5276 16.2474 13.3444 16.9999 15.2388 16.9999V16.9999ZM20.0007 9.85709C20.0007 11.12 19.499 12.3312 18.606 13.2243C17.713 14.1173 16.5018 14.619 15.2388 14.619C13.9759 14.619 12.7647 14.1173 11.8717 13.2243C10.9786 12.3312 10.4769 11.12 10.4769 9.85709C10.4769 8.59415 10.9786 7.38295 11.8717 6.48992C12.7647 5.59688 13.9759 5.09519 15.2388 5.09519C16.5018 5.09519 17.713 5.59688 18.606 6.48992C19.499 7.38295 20.0007 8.59415 20.0007 9.85709V9.85709ZM29.5246 28.9047C29.5246 31.2857 27.1436 31.2857 27.1436 31.2857H3.33408C3.33408 31.2857 0.953125 31.2857 0.953125 28.9047C0.953125 26.5238 3.33408 19.3809 15.2388 19.3809C27.1436 19.3809 29.5246 26.5238 29.5246 28.9047ZM27.1436 28.8952C27.1412 28.3095 26.7769 26.5476 25.1626 24.9333C23.6103 23.3809 20.6888 21.7619 15.2388 21.7619C9.78646 21.7619 6.86741 23.3809 5.31503 24.9333C3.70074 26.5476 3.33884 28.3095 3.33408 28.8952H27.1436Z" fill="#B7171F"/>
<path fill-rule="evenodd" clip-rule="evenodd" d="M38.7003 10.2047C38.8112 10.3153 38.8991 10.4467 38.9591 10.5913C39.0192 10.7359 39.05 10.891 39.05 11.0476C39.05 11.2042 39.0192 11.3592 38.9591 11.5039C38.8991 11.6485 38.8112 11.7799 38.7003 11.8904L31.5574 19.0333C31.4469 19.1442 31.3155 19.2321 31.1709 19.2921C31.0262 19.3522 30.8712 19.383 30.7146 19.383C30.558 19.383 30.4029 19.3522 30.2583 19.2921C30.1137 19.2321 29.9823 19.1442 29.8717 19.0333L26.3003 15.4619C26.0768 15.2383 25.9512 14.9351 25.9512 14.619C25.9512 14.3029 26.0768 13.9997 26.3003 13.7762C26.5238 13.5526 26.827 13.427 27.1432 13.427C27.4593 13.427 27.7625 13.5526 27.986 13.7762L30.7146 16.5071L37.0146 10.2047C37.1252 10.0939 37.2565 10.0059 37.4012 9.94589C37.5458 9.88587 37.7009 9.85498 37.8574 9.85498C38.014 9.85498 38.1691 9.88587 38.3137 9.94589C38.4583 10.0059 38.5897 10.0939 38.7003 10.2047V10.2047Z" fill="#B7171F"/>
</svg>
