<svg width="41" height="41" viewBox="0 0 41 41" fill="none" xmlns="http://www.w3.org/2000/svg">
<path d="M37.583 28.905V34.03C37.5849 34.5058 37.4874 34.9767 37.2968 35.4126C37.1062 35.8486 36.8267 36.2399 36.4761 36.5615C36.1255 36.8832 35.7116 37.128 35.2609 37.2805C34.8102 37.4329 34.3326 37.4895 33.8588 37.4467C28.602 36.8755 23.5524 35.0792 19.1159 32.2021C14.9882 29.5792 11.4887 26.0797 8.86587 21.9521C5.97875 17.4954 4.18204 12.4213 3.62129 7.14084C3.5786 6.66843 3.63474 6.1923 3.78614 5.74278C3.93754 5.29325 4.18089 4.88018 4.50068 4.52986C4.82047 4.17953 5.2097 3.89963 5.6436 3.70798C6.07749 3.51632 6.54654 3.41712 7.02087 3.41667H12.1459C12.9749 3.40851 13.7787 3.7021 14.4073 4.2427C15.0359 4.78331 15.4465 5.53406 15.5625 6.355C15.7789 7.99512 16.18 9.60549 16.7584 11.1554C16.9882 11.7669 17.038 12.4314 16.9017 13.0703C16.7655 13.7091 16.4489 14.2955 15.9896 14.76L13.82 16.9296C16.2519 21.2065 19.7931 24.7477 24.07 27.1796L26.2396 25.01C26.7041 24.5507 27.2905 24.2342 27.9294 24.0979C28.5682 23.9617 29.2327 24.0114 29.8442 24.2413C31.3941 24.8196 33.0045 25.2208 34.6446 25.4371C35.4745 25.5542 36.2323 25.9721 36.7741 26.6116C37.3159 27.251 37.6037 28.0672 37.583 28.905Z" stroke="white" stroke-width="1.7" stroke-linecap="round" stroke-linejoin="round"/>
</svg>
