<svg width="41" height="40" viewBox="0 0 41 40" fill="none" xmlns="http://www.w3.org/2000/svg">
<g clip-path="url(#clip0_144_142)">
<path d="M19.3818 15.6175C19.6603 14.7925 20.8398 14.7925 21.1183 15.6175L22.7509 20.46C23.1103 21.5245 23.7158 22.4917 24.5193 23.285C25.3229 24.0782 26.3026 24.6757 27.3806 25.03L32.2811 26.6425C33.1164 26.9175 33.1164 28.0825 32.2811 28.3575L27.378 29.97C26.3002 30.325 25.3209 30.923 24.5178 31.7166C23.7146 32.5103 23.1097 33.4778 22.7509 34.5425L21.1183 39.3825C21.0582 39.5632 20.942 39.7205 20.7861 39.832C20.6301 39.9436 20.4425 40.0036 20.25 40.0036C20.0575 40.0036 19.8699 39.9436 19.714 39.832C19.5581 39.7205 19.4419 39.5632 19.3818 39.3825L17.7492 34.54C17.3901 33.4758 16.785 32.5088 15.9818 31.7156C15.1787 30.9223 14.1996 30.3247 13.122 29.97L8.21901 28.3575C8.0361 28.2983 7.87682 28.1834 7.76389 28.0294C7.65097 27.8755 7.59017 27.6902 7.59017 27.5C7.59017 27.3099 7.65097 27.1246 7.76389 26.9706C7.87682 26.8167 8.0361 26.7018 8.21901 26.6425L13.122 25.03C14.1996 24.6754 15.1787 24.0777 15.9818 23.2845C16.785 22.4913 17.3901 21.5243 17.7492 20.46L19.3818 15.6175V15.6175ZM9.6036 2.87004C9.6399 2.76178 9.70982 2.66756 9.80343 2.60079C9.89703 2.53401 10.0096 2.49807 10.125 2.49807C10.2405 2.49807 10.353 2.53401 10.4467 2.60079C10.5403 2.66756 10.6102 2.76178 10.6465 2.87004L11.6261 5.77504C12.064 7.07004 13.0917 8.08504 14.4029 8.51754L17.3442 9.48504C17.4538 9.52089 17.5492 9.58995 17.6168 9.6824C17.6844 9.77485 17.7208 9.886 17.7208 10C17.7208 10.1141 17.6844 10.2252 17.6168 10.3177C17.5492 10.4101 17.4538 10.4792 17.3442 10.515L14.4029 11.4825C13.7562 11.6953 13.1686 12.054 12.6866 12.53C12.2046 13.006 11.8415 13.5864 11.6261 14.225L10.6465 17.13C10.6102 17.2383 10.5403 17.3325 10.4467 17.3993C10.353 17.4661 10.2405 17.502 10.125 17.502C10.0096 17.502 9.89703 17.4661 9.80343 17.3993C9.70982 17.3325 9.6399 17.2383 9.6036 17.13L8.62401 14.225C8.40856 13.5864 8.04546 13.006 7.56348 12.53C7.0815 12.054 6.4939 11.6953 5.84723 11.4825L2.90591 10.515C2.7963 10.4792 2.70091 10.4101 2.6333 10.3177C2.56569 10.2252 2.5293 10.1141 2.5293 10C2.5293 9.886 2.56569 9.77485 2.6333 9.6824C2.70091 9.58995 2.7963 9.52089 2.90591 9.48504L5.84723 8.51754C6.4939 8.30475 7.0815 7.94613 7.56348 7.47011C8.04546 6.99408 8.40856 6.41373 8.62401 5.77504L9.6036 2.87004V2.87004ZM27.497 0.247541C27.522 0.176357 27.5688 0.114631 27.631 0.0709448C27.6931 0.027259 27.7675 0.00378418 27.8438 0.00378418C27.9201 0.00378418 27.9945 0.027259 28.0566 0.0709448C28.1188 0.114631 28.1656 0.176357 28.1906 0.247541L28.8436 2.18254C29.1347 3.04754 29.8207 3.72504 30.6965 4.01254L32.6557 4.65754C32.7278 4.68222 32.7903 4.72847 32.8345 4.78985C32.8787 4.85123 32.9025 4.9247 32.9025 5.00004C32.9025 5.07538 32.8787 5.14885 32.8345 5.21023C32.7903 5.27162 32.7278 5.31786 32.6557 5.34254L30.6965 5.98754C30.2649 6.12935 29.8727 6.36858 29.5511 6.68625C29.2294 7.00391 28.9872 7.39126 28.8436 7.81754L28.1906 9.75254C28.1656 9.82373 28.1188 9.88545 28.0566 9.92914C27.9945 9.97282 27.9201 9.9963 27.8438 9.9963C27.7675 9.9963 27.6931 9.97282 27.631 9.92914C27.5688 9.88545 27.522 9.82373 27.497 9.75254L26.8439 7.81754C26.7004 7.39126 26.4581 7.00391 26.1365 6.68625C25.8149 6.36858 25.4227 6.12935 24.9911 5.98754L23.0344 5.34254C22.9623 5.31786 22.8998 5.27162 22.8556 5.21023C22.8114 5.14885 22.7876 5.07538 22.7876 5.00004C22.7876 4.9247 22.8114 4.85123 22.8556 4.78985C22.8998 4.72847 22.9623 4.68222 23.0344 4.65754L24.9936 4.01254C25.8694 3.72504 26.5554 3.04754 26.8465 2.18254L27.497 0.250041V0.247541Z" fill="#B7171F"/>
</g>
<defs>
<clipPath id="clip0_144_142">
<rect width="40.5" height="40" fill="white"/>
</clipPath>
</defs>
</svg>
